<svg width="19" height="19" viewBox="0 0 19 19" fill="none" xmlns="http://www.w3.org/2000/svg">
<path fill-rule="evenodd" clip-rule="evenodd" d="M9.81315 12.184C9.10784 12.1832 8.42464 11.9379 7.87988 11.4899C7.33512 11.0419 6.96253 10.4189 6.82552 9.727C6.68852 9.03512 6.7955 8.31714 7.12842 7.69534C7.46134 7.07354 7.9996 6.58638 8.65137 6.31682C9.30314 6.04726 10.0281 6.01198 10.703 6.21698C11.3778 6.42198 11.9608 6.85458 12.3525 7.44112C12.7443 8.02765 12.9206 8.73184 12.8514 9.43375C12.7822 10.1357 12.4718 10.7919 11.9731 11.2907C11.6927 11.5785 11.3566 11.8062 10.9852 11.9598C10.6138 12.1134 10.215 12.1897 9.81315 12.184ZM9.81315 4.45067C9.1966 4.44909 8.58575 4.56931 8.01579 4.80445C7.44583 5.03958 6.92796 5.38499 6.49186 5.82084C6.05577 6.25669 5.71007 6.77439 5.47461 7.34422C5.23915 7.91405 5.11856 8.52478 5.11979 9.14133C5.12044 9.91291 5.31127 10.6724 5.67546 11.3526C6.03964 12.0329 6.56591 12.6128 7.20768 13.0411C7.84945 13.4695 8.58693 13.7329 9.35482 13.8083C10.1227 13.8836 10.8974 13.7685 11.6102 13.473C12.323 13.1776 12.952 12.711 13.4414 12.1145C13.9308 11.5181 14.2656 10.8101 14.4162 10.0534C14.5668 9.29666 14.5285 8.51446 14.3047 7.77605C14.0809 7.03765 13.6785 6.3658 13.1331 5.82C12.7036 5.37547 12.1872 5.02412 11.616 4.78785C11.0449 4.55158 10.4312 4.43544 9.81315 4.44667V4.45067ZM14.6932 3.16533C14.5491 3.16261 14.4059 3.18976 14.2728 3.24506C14.1397 3.30037 14.0195 3.38263 13.9198 3.48667C13.7148 3.69213 13.5998 3.97047 13.5998 4.26067C13.5998 4.55086 13.7148 4.82921 13.9198 5.03467C14.0211 5.13658 14.1417 5.21745 14.2744 5.27264C14.4071 5.32783 14.5495 5.35624 14.6932 5.35624C14.8369 5.35624 14.9793 5.32783 15.112 5.27264C15.2447 5.21745 15.3651 5.13658 15.4665 5.03467C15.6714 4.82921 15.7865 4.55086 15.7865 4.26067C15.7865 3.97047 15.6714 3.69213 15.4665 3.48667C15.3675 3.38094 15.2477 3.29694 15.1146 3.24001C14.9815 3.18309 14.838 3.15448 14.6932 3.156V3.16533ZM11.9865 1.636C12.2665 1.636 12.6531 1.652 13.1331 1.672C13.5441 1.6854 13.9539 1.72503 14.3599 1.79067C14.6461 1.8376 14.9274 1.91125 15.1999 2.01067C15.5941 2.16722 15.9524 2.40219 16.2531 2.70133C16.5546 2.99862 16.7908 3.35556 16.9465 3.74934C17.0427 4.02598 17.1142 4.31066 17.1598 4.6C17.2333 5.00491 17.2734 5.41518 17.2798 5.82667C17.3065 6.30667 17.3198 6.68978 17.3198 6.976V11.3093C17.3198 11.5947 17.3065 11.9778 17.2798 12.4587C17.2735 12.8702 17.2334 13.2804 17.1598 13.6853C17.1142 13.9747 17.0428 14.2594 16.9465 14.536C16.7909 14.9298 16.5547 15.2868 16.2531 15.584C15.9525 15.8833 15.5942 16.1183 15.1999 16.2747C14.9274 16.3742 14.6461 16.4479 14.3599 16.4947C13.9539 16.5605 13.5441 16.6001 13.1331 16.6133C12.6531 16.6333 12.2665 16.6453 11.9865 16.6493C11.7065 16.6533 11.2799 16.6493 10.7199 16.6493H9.81315H8.90641C8.34641 16.6493 7.93316 16.6493 7.65316 16.6493C7.37316 16.6493 6.97316 16.6333 6.49316 16.6133C6.08215 16.6001 5.67236 16.5605 5.26644 16.4947C4.98015 16.4479 4.69891 16.3742 4.42643 16.2747C4.03209 16.1183 3.67381 15.8833 3.37321 15.584C3.07157 15.2868 2.83538 14.9298 2.67985 14.536C2.58354 14.2594 2.5121 13.9747 2.46647 13.6853C2.39293 13.2804 2.35284 12.8702 2.34652 12.4587C2.31985 11.9787 2.30648 11.5956 2.30648 11.3093V10.048C2.30648 9.496 2.31982 9.19333 2.31982 9.13733C2.31982 9.08133 2.30648 8.77867 2.30648 8.22667V6.97067C2.30648 6.68533 2.31985 6.30222 2.34652 5.82133C2.35287 5.40985 2.39296 4.99958 2.46647 4.59467C2.51213 4.30533 2.58357 4.02064 2.67985 3.744C2.83552 3.35023 3.07169 2.99329 3.37321 2.696C3.67395 2.39685 4.03219 2.16188 4.42643 2.00533C4.69894 1.90592 4.98018 1.83226 5.26644 1.78533C5.67238 1.7197 6.08217 1.68006 6.49316 1.66667C6.97316 1.64711 7.35982 1.63511 7.65316 1.63067C7.93316 1.63067 8.34641 1.63067 8.90641 1.63067H9.81315H10.7199C11.2799 1.62667 11.6932 1.62667 11.9865 1.63067V1.636ZM18.8932 5.36933C18.9035 3.95263 18.3797 2.58402 17.4264 1.536C16.3801 0.574632 15.0073 0.0469935 13.5864 0.0600001C12.8931 0.0200001 11.6265 0 9.81315 0C7.99982 0 6.73321 0.0200001 6.03988 0.0600001C4.61897 0.0469935 3.24625 0.574632 2.19987 1.536C1.24656 2.58402 0.722787 3.95263 0.733073 5.36933C0.693073 6.068 0.666504 7.32534 0.666504 9.14267C0.666504 10.96 0.693073 12.2187 0.733073 12.916C0.722787 14.3327 1.24656 15.7013 2.19987 16.7493C3.24625 17.7107 4.61897 18.2383 6.03988 18.2253C6.73321 18.2653 7.99982 18.2853 9.81315 18.2853C11.6265 18.2853 12.8931 18.2653 13.5864 18.2253C15.0073 18.2383 16.3801 17.7107 17.4264 16.7493C18.3797 15.7013 18.9035 14.3327 18.8932 12.916C18.9332 12.2173 18.9598 10.96 18.9598 9.14267C18.9598 7.32534 18.9332 6.068 18.8932 5.36933Z" fill="white"/>
</svg>
