<svg width="11" height="20" viewBox="0 0 11 20" fill="none" xmlns="http://www.w3.org/2000/svg">
<path fill-rule="evenodd" clip-rule="evenodd" d="M8.23975 0.0050521C7.63495 -0.0235749 7.03061 0.0696736 6.46257 0.279255C5.89452 0.488837 5.37438 0.810474 4.93311 1.22505C4.50297 1.68263 4.1711 2.22342 3.95785 2.81411C3.74459 3.4048 3.65456 4.0329 3.6932 4.65972V7.25438H0.666504V10.7784H3.6932V19.8144H7.34652V10.7784H10.3599L10.8265 7.25438H7.34652V5.00505C7.3153 4.54992 7.43735 4.09743 7.6932 3.71972C7.88099 3.55448 8.10165 3.4309 8.34066 3.35713C8.57967 3.28336 8.8315 3.26107 9.07975 3.29172H10.9465V0.147718C10.0486 0.0377278 9.14418 -0.00994099 8.23975 0.0050521Z" fill="white"/>
</svg>
