<svg width="20" height="20" viewBox="0 0 20 20" fill="none" xmlns="http://www.w3.org/2000/svg">
<g clip-path="url(#clip0)">
<path d="M4.5444 6.65381H0.247559V19.5573H4.5444V6.65381Z" fill="white"/>
<path d="M18.6456 7.8325C17.743 6.84722 16.5492 6.35449 15.0649 6.35449C14.5181 6.35449 14.021 6.42176 13.5738 6.55639C13.1268 6.69093 12.7493 6.87969 12.4411 7.12278C12.133 7.36586 11.8876 7.59152 11.7055 7.79976C11.5323 7.99755 11.3629 8.22795 11.1976 8.48859V6.65376H6.91357L6.92671 7.27884C6.93551 7.69564 6.93984 8.98027 6.93984 11.1329C6.93984 13.2858 6.93118 16.0939 6.91376 19.5574H11.1976V12.3568C11.1976 11.9142 11.2451 11.5627 11.3408 11.302C11.5232 10.8591 11.7985 10.4883 12.1677 10.1889C12.5367 9.88921 12.9945 9.73948 13.5415 9.73948C14.2878 9.73948 14.8371 9.99771 15.1887 10.5142C15.5402 11.0306 15.716 11.7447 15.716 12.6561V19.557H19.9998V12.1617C19.9995 10.2604 19.5484 8.81746 18.6456 7.8325Z" fill="white"/>
<path d="M2.42183 0.442871C1.70143 0.442871 1.11772 0.653526 0.670549 1.07443C0.223425 1.49542 0 2.02691 0 2.66942C0 3.30293 0.216995 3.8326 0.65103 4.25784C1.08493 4.68312 1.65793 4.89587 2.3697 4.89587H2.39574C3.12499 4.89587 3.71317 4.6833 4.16016 4.25784C4.60715 3.8326 4.82629 3.30311 4.81767 2.66942C4.809 2.02696 4.58749 1.49542 4.15359 1.07443C3.71974 0.653344 3.14227 0.442871 2.42183 0.442871Z" fill="white"/>
</g>
<defs>
<clipPath id="clip0">
<rect width="20" height="20" fill="white"/>
</clipPath>
</defs>
</svg>
