<svg width="44" height="48" viewBox="0 0 44 48" fill="none" xmlns="http://www.w3.org/2000/svg">
<path d="M35.5478 31.0182C33.6469 33.629 30.5677 35.3294 27.0983 35.3294H22.2303C20.5487 35.3294 19.1166 34.2618 18.5744 32.7675C17.905 32.5678 17.2486 32.3086 16.6081 31.9904C15.2516 31.3164 14.0199 30.4033 12.9357 29.2722C5.90282 30.8173 0.63916 37.0839 0.63916 44.581V45.5609C0.63916 46.9079 1.73122 48 3.07828 48H40.9216C42.2686 48 43.3607 46.9079 43.3607 45.5609V44.581C43.3606 38.7895 40.2192 33.732 35.5478 31.0182Z" fill="#F80000"/>
<path d="M10.3433 24.2448C11.3916 24.2448 12.304 23.6638 12.7767 22.8063C12.7892 22.8403 12.8018 22.874 12.8145 22.9077C12.8183 22.9179 12.8221 22.928 12.8258 22.9381C13.9348 25.8572 16.0926 28.3042 18.9379 29.3734C19.6261 28.28 20.8429 27.5528 22.2304 27.5528H27.0984C27.5839 27.5528 28.0359 27.4158 28.4321 27.1943C29.0975 26.8222 29.6958 25.8784 30.0048 25.3781C30.4992 24.5775 30.8824 23.7294 31.2221 22.8049C31.4129 23.1516 31.6755 23.4531 31.99 23.6894V24.8831C31.99 27.5804 29.7956 29.7748 27.0983 29.7748H22.2303C21.31 29.7748 20.5639 30.5209 20.5639 31.4412C20.5639 32.3616 21.31 33.1076 22.2303 33.1076H27.0983C31.6333 33.1076 35.3228 29.4181 35.3228 24.8831V23.6894C35.9973 23.1827 36.4337 22.3761 36.4337 21.4675V16.4428V14.516C36.4337 13.5887 35.9789 12.7682 35.2807 12.2638C34.7391 5.41079 28.9896 0 21.9998 0C15.0099 0 9.2605 5.41079 8.71896 12.2637C8.02068 12.7681 7.56592 13.5887 7.56592 14.5159V21.4673C7.56592 23.0056 8.81555 24.2448 10.3433 24.2448ZM21.9998 3.33288C27.1742 3.33288 31.4421 7.28717 31.9409 12.3326C31.6134 12.5902 31.3452 12.9194 31.1603 13.2972C29.5879 9.19488 26.0779 6.3387 21.9997 6.3387C17.8336 6.3387 14.3798 9.29304 12.8452 13.2809C12.8432 13.2863 12.8412 13.2918 12.8391 13.2974C12.6543 12.9196 12.386 12.5903 12.0585 12.3327C12.5577 7.28717 16.8254 3.33288 21.9998 3.33288Z" fill="#F80000"/>
</svg>
