<svg width="56" height="42" viewBox="0 0 56 42" fill="none" xmlns="http://www.w3.org/2000/svg">
<circle cx="28.5" cy="22.5" r="15.5" fill="white"/>
<path d="M20.55 21C20.55 22.9135 21.3079 24.7486 22.6568 26.1016C24.0058 27.4546 25.8354 28.2147 27.7431 28.2147C29.6508 28.2147 31.4804 27.4546 32.8294 26.1016C34.1783 24.7486 34.9362 22.9135 34.9362 21C34.9362 19.0865 34.1783 17.2514 32.8294 15.8984C31.4804 14.5454 29.6508 13.7853 27.7431 13.7853C25.8354 13.7853 24.0058 14.5454 22.6568 15.8984C21.3079 17.2514 20.55 19.0865 20.55 21ZM55.6291 19.338C49.5407 6.47393 40.3374 0 28 0C15.6562 0 6.45929 6.47393 0.370863 19.3445C0.126654 19.8631 0 20.4296 0 21.0032C0 21.5768 0.126654 22.1433 0.370863 22.662C6.45929 35.5261 15.6626 42 28 42C40.3438 42 49.5407 35.5261 55.6291 22.6555C56.1236 21.612 56.1236 20.4009 55.6291 19.338ZM27.7431 32.3374C21.5005 32.3374 16.4397 27.2613 16.4397 21C16.4397 14.7387 21.5005 9.66258 27.7431 9.66258C33.9857 9.66258 39.0465 14.7387 39.0465 21C39.0465 27.2613 33.9857 32.3374 27.7431 32.3374Z" fill="#F80000"/>
</svg>
