<svg width="48" height="48" viewBox="0 0 48 48" fill="none" xmlns="http://www.w3.org/2000/svg">
<path d="M0 5C0 2.23858 2.23858 0 5 0H43C45.7614 0 48 2.23858 48 5V43C48 45.7614 45.7614 48 43 48H5C2.23858 48 0 45.7614 0 43V5Z" fill="#F80000"/>
<path fill-rule="evenodd" clip-rule="evenodd" d="M14 10C14 8.89543 14.8954 8 16 8C17.1046 8 18 8.89543 18 10V22.3414C20.3304 23.1651 22 25.3876 22 28C22 30.6124 20.3304 32.8349 18 33.6586V37C18 38.1046 17.1046 39 16 39C14.8954 39 14 38.1046 14 37V33.6586C11.6696 32.8349 10 30.6124 10 28C10 25.3876 11.6696 23.1651 14 22.3414V10ZM16 26C14.8954 26 14 26.8954 14 28C14 29.1046 14.8954 30 16 30C17.1046 30 18 29.1046 18 28C18 26.8954 17.1046 26 16 26Z" fill="white"/>
<path fill-rule="evenodd" clip-rule="evenodd" d="M30 37C30 38.1046 30.8954 39 32 39C33.1046 39 34 38.1046 34 37V24.6586C36.3304 23.8349 38 21.6124 38 19C38 16.3876 36.3304 14.1651 34 13.3414V10C34 8.89543 33.1046 8 32 8C30.8954 8 30 8.89543 30 10V13.3414C27.6696 14.1651 26 16.3876 26 19C26 21.6124 27.6696 23.8349 30 24.6586V37ZM32 21C30.8954 21 30 20.1046 30 19C30 17.8954 30.8954 17 32 17C33.1046 17 34 17.8954 34 19C34 20.1046 33.1046 21 32 21Z" fill="white"/>
</svg>
