<svg width="196" height="35" viewBox="0 0 196 35" fill="none" xmlns="http://www.w3.org/2000/svg">
<path d="M39.9997 0V32H0.639664C0.00366354 32 -0.192336 31.582 0.207664 31.07L9.14566 19.574C9.23526 19.4539 9.3495 19.3542 9.48073 19.2818C9.61195 19.2094 9.75713 19.1659 9.90654 19.1542C10.056 19.1424 10.2062 19.1627 10.3471 19.2138C10.488 19.2648 10.6164 19.3453 10.7237 19.45L13.5617 22.118C13.664 22.2219 13.789 22.3008 13.9268 22.3484C14.0646 22.396 14.2116 22.4111 14.3563 22.3925C14.5009 22.3739 14.6393 22.3221 14.7606 22.2412C14.882 22.1603 14.9829 22.0524 15.0557 21.926L21.1497 12.446C21.2218 12.3203 21.3223 12.2132 21.4431 12.1331C21.5639 12.0531 21.7017 12.0023 21.8456 11.9848C21.9894 11.9673 22.1354 11.9836 22.2719 12.0325C22.4083 12.0813 22.5315 12.1612 22.6317 12.266L26.9737 16.458C27.4377 16.908 28.0917 16.818 28.4217 16.258L38.6877 0.688C39.0197 0.124 39.4997 0 39.9997 0Z" fill="url(#paint0_linear)"/>
<path d="M70.296 27.336C72.096 27.336 73.56 26.88 74.688 25.968C75.816 25.056 76.392 23.832 76.392 22.272C76.392 21.312 76.128 20.472 75.768 19.896C75.456 19.32 74.688 18.72 74.184 18.408C73.944 18.24 73.584 18.072 73.128 17.904C72.672 17.712 72.312 17.568 72.048 17.496L70.896 17.112C69.648 16.728 68.808 16.368 68.352 16.056C67.92 15.72 67.704 15.288 67.704 14.76C67.704 13.776 68.544 13.08 69.912 13.08C71.376 13.08 72.456 13.8 73.128 15.24L75.912 13.632C74.76 11.256 72.624 9.864 69.912 9.864C68.4 9.864 67.08 10.32 66 11.232C64.92 12.12 64.392 13.344 64.392 14.856C64.392 16.392 64.944 17.544 65.976 18.312C67.032 19.056 67.944 19.416 69.456 19.872C70.824 20.256 71.76 20.616 72.288 20.952C72.816 21.264 73.08 21.72 73.08 22.32C73.08 23.352 72.24 24.096 70.392 24.096C68.472 24.096 67.176 23.232 66.528 21.528L63.696 23.184C64.632 25.752 66.96 27.336 70.296 27.336ZM92.571 24.816C94.275 23.112 95.115 21.048 95.115 18.6C95.115 16.152 94.275 14.088 92.571 12.408C90.867 10.704 88.803 9.864 86.379 9.864C83.955 9.864 81.891 10.704 80.187 12.408C78.507 14.088 77.667 16.152 77.667 18.6C77.667 21.048 78.507 23.112 80.187 24.816C81.891 26.496 83.955 27.336 86.379 27.336C88.803 27.336 90.867 26.496 92.571 24.816ZM82.515 22.56C81.483 21.528 80.955 20.208 80.955 18.6C80.955 16.992 81.483 15.672 82.515 14.64C83.547 13.608 84.843 13.08 86.379 13.08C87.915 13.08 89.211 13.608 90.243 14.64C91.275 15.672 91.803 16.992 91.803 18.6C91.803 20.208 91.275 21.528 90.243 22.56C89.211 23.592 87.915 24.096 86.379 24.096C84.843 24.096 83.547 23.592 82.515 22.56ZM95.2339 10.2V13.368H99.7459V27H103.058V13.368H107.594V10.2H95.2339ZM119.475 10.2H109.443V27H112.755V20.52H119.283V17.352H112.755V13.368H119.475V10.2ZM129.52 18.36L134.392 10.2H130.648L127.648 15.24L124.648 10.2H120.904L125.776 18.384L120.64 27H124.384L127.648 21.528L130.912 27H134.68L129.52 18.36ZM139.633 26.712C140.425 25.92 140.425 24.624 139.633 23.832C138.841 23.04 137.545 23.04 136.753 23.832C135.961 24.624 135.961 25.92 136.753 26.712C137.545 27.504 138.841 27.504 139.633 26.712ZM149.708 27.336C152.78 27.336 155.492 25.8 156.932 23.376L154.076 21.72C153.284 23.184 151.628 24.096 149.708 24.096C148.076 24.096 146.756 23.592 145.748 22.56C144.764 21.528 144.26 20.208 144.26 18.6C144.26 16.968 144.764 15.648 145.748 14.616C146.756 13.584 148.076 13.08 149.708 13.08C151.628 13.08 153.236 13.968 154.076 15.48L156.932 13.824C155.492 11.4 152.756 9.864 149.708 9.864C147.188 9.864 145.1 10.704 143.444 12.384C141.788 14.04 140.972 16.128 140.972 18.6C140.972 21.072 141.788 23.136 143.444 24.816C145.1 26.496 147.188 27.336 149.708 27.336ZM172.938 24.816C174.642 23.112 175.482 21.048 175.482 18.6C175.482 16.152 174.642 14.088 172.938 12.408C171.234 10.704 169.17 9.864 166.746 9.864C164.322 9.864 162.258 10.704 160.554 12.408C158.874 14.088 158.034 16.152 158.034 18.6C158.034 21.048 158.874 23.112 160.554 24.816C162.258 26.496 164.322 27.336 166.746 27.336C169.17 27.336 171.234 26.496 172.938 24.816ZM162.882 22.56C161.85 21.528 161.322 20.208 161.322 18.6C161.322 16.992 161.85 15.672 162.882 14.64C163.914 13.608 165.21 13.08 166.746 13.08C168.282 13.08 169.578 13.608 170.61 14.64C171.642 15.672 172.17 16.992 172.17 18.6C172.17 20.208 171.642 21.528 170.61 22.56C169.578 23.592 168.282 24.096 166.746 24.096C165.21 24.096 163.914 23.592 162.882 22.56ZM190.842 10.2L186.042 18.144L181.218 10.2H177.81V27H181.122V16.128L185.85 23.904H186.234L190.962 16.104V27H194.25V10.2H190.842Z" fill="white"/>
<defs>
<linearGradient id="paint0_linear" x1="1.50175e-07" y1="3" x2="50" y2="46" gradientUnits="userSpaceOnUse">
<stop stop-color="#A80000"/>
<stop offset="1" stop-color="#FF0000"/>
</linearGradient>
</defs>
</svg>
