<svg width="40" height="32" viewBox="0 0 40 32" fill="none" xmlns="http://www.w3.org/2000/svg">
<path d="M39.9997 0V32H0.639664C0.00366354 32 -0.192336 31.582 0.207664 31.07L9.14566 19.574C9.23526 19.4539 9.3495 19.3542 9.48073 19.2818C9.61195 19.2094 9.75713 19.1659 9.90654 19.1542C10.056 19.1424 10.2062 19.1627 10.3471 19.2138C10.488 19.2648 10.6164 19.3453 10.7237 19.45L13.5617 22.118C13.664 22.2219 13.789 22.3008 13.9268 22.3484C14.0646 22.396 14.2116 22.4111 14.3563 22.3925C14.5009 22.3739 14.6393 22.3221 14.7606 22.2412C14.882 22.1603 14.9829 22.0524 15.0557 21.926L21.1497 12.446C21.2218 12.3203 21.3223 12.2132 21.4431 12.1331C21.5639 12.0531 21.7017 12.0023 21.8456 11.9848C21.9894 11.9673 22.1354 11.9836 22.2719 12.0325C22.4083 12.0813 22.5315 12.1612 22.6317 12.266L26.9737 16.458C27.4377 16.908 28.0917 16.818 28.4217 16.258L38.6877 0.688C39.0197 0.124 39.4997 0 39.9997 0Z" fill="url(#paint0_linear)"/>
<defs>
<linearGradient id="paint0_linear" x1="1.50175e-07" y1="3" x2="50" y2="46" gradientUnits="userSpaceOnUse">
<stop stop-color="#A80000"/>
<stop offset="1" stop-color="#FF0000"/>
</linearGradient>
</defs>
</svg>
